# This file uses centimeters as units for non-parametric coordinates.

mtllib Torus.mtl
g default
v 0.353553 0.000000 -0.353553
v 0.000000 0.000000 -0.500000
v -0.353553 0.000000 -0.353553
v -0.500000 0.000000 0.000000
v -0.353553 0.000000 0.353553
v 0.000000 0.000000 0.500000
v 0.353553 0.000000 0.353553
v 0.500000 0.000000 0.000000
v 0.457107 0.353553 -0.457107
v 0.000000 0.353553 -0.646447
v -0.457107 0.353553 -0.457107
v -0.646447 0.353553 0.000000
v -0.457107 0.353553 0.457107
v 0.000000 0.353553 0.646447
v 0.457107 0.353553 0.457107
v 0.646447 0.353553 0.000000
v 0.707107 0.500000 -0.707107
v 0.000000 0.500000 -1.000000
v -0.707107 0.500000 -0.707107
v -1.000000 0.500000 0.000000
v -0.707107 0.500000 0.707107
v 0.000000 0.500000 1.000000
v 0.707107 0.500000 0.707107
v 1.000000 0.500000 0.000000
v 0.957107 0.353553 -0.957107
v 0.000000 0.353553 -1.353553
v -0.957107 0.353553 -0.957107
v -1.353553 0.353553 0.000000
v -0.957107 0.353553 0.957107
v 0.000000 0.353553 1.353553
v 0.957107 0.353553 0.957107
v 1.353553 0.353553 0.000000
v 1.060660 0.000000 -1.060660
v 0.000000 0.000000 -1.500000
v -1.060660 0.000000 -1.060660
v -1.500000 0.000000 0.000000
v -1.060660 0.000000 1.060660
v 0.000000 0.000000 1.500000
v 1.060660 0.000000 1.060660
v 1.500000 0.000000 0.000000
v 0.957107 -0.353553 -0.957107
v 0.000000 -0.353553 -1.353553
v -0.957107 -0.353553 -0.957107
v -1.353553 -0.353553 0.000000
v -0.957107 -0.353553 0.957107
v 0.000000 -0.353553 1.353553
v 0.957107 -0.353553 0.957107
v 1.353553 -0.353553 0.000000
v 0.707107 -0.500000 -0.707107
v 0.000000 -0.500000 -1.000000
v -0.707107 -0.500000 -0.707107
v -1.000000 -0.500000 0.000000
v -0.707107 -0.500000 0.707107
v 0.000000 -0.500000 1.000000
v 0.707107 -0.500000 0.707107
v 1.000000 -0.500000 0.000000
v 0.457107 -0.353553 -0.457107
v 0.000000 -0.353553 -0.646447
v -0.457107 -0.353553 -0.457107
v -0.646447 -0.353553 0.000000
v -0.457107 -0.353553 0.457107
v 0.000000 -0.353553 0.646447
v 0.457107 -0.353553 0.457107
v 0.646447 -0.353553 0.000000
vt 0.125000 1.000000
vt 0.000000 1.000000
vt 0.000000 0.875000
vt 0.125000 0.875000
vt 0.250000 1.000000
vt 0.250000 0.875000
vt 0.375000 1.000000
vt 0.375000 0.875000
vt 0.500000 1.000000
vt 0.500000 0.875000
vt 0.625000 1.000000
vt 0.625000 0.875000
vt 0.750000 1.000000
vt 0.750000 0.875000
vt 0.875000 1.000000
vt 0.875000 0.875000
vt 1.000000 1.000000
vt 1.000000 0.875000
vt 0.000000 0.750000
vt 0.125000 0.750000
vt 0.250000 0.750000
vt 0.375000 0.750000
vt 0.500000 0.750000
vt 0.625000 0.750000
vt 0.750000 0.750000
vt 0.875000 0.750000
vt 1.000000 0.750000
vt 0.000000 0.625000
vt 0.125000 0.625000
vt 0.250000 0.625000
vt 0.375000 0.625000
vt 0.500000 0.625000
vt 0.625000 0.625000
vt 0.750000 0.625000
vt 0.875000 0.625000
vt 1.000000 0.625000
vt 0.000000 0.500000
vt 0.125000 0.500000
vt 0.250000 0.500000
vt 0.375000 0.500000
vt 0.500000 0.500000
vt 0.625000 0.500000
vt 0.750000 0.500000
vt 0.875000 0.500000
vt 1.000000 0.500000
vt 0.000000 0.375000
vt 0.125000 0.375000
vt 0.250000 0.375000
vt 0.375000 0.375000
vt 0.500000 0.375000
vt 0.625000 0.375000
vt 0.750000 0.375000
vt 0.875000 0.375000
vt 1.000000 0.375000
vt 0.000000 0.250000
vt 0.125000 0.250000
vt 0.250000 0.250000
vt 0.375000 0.250000
vt 0.500000 0.250000
vt 0.625000 0.250000
vt 0.750000 0.250000
vt 0.875000 0.250000
vt 1.000000 0.250000
vt 0.000000 0.125000
vt 0.125000 0.125000
vt 0.250000 0.125000
vt 0.375000 0.125000
vt 0.500000 0.125000
vt 0.625000 0.125000
vt 0.750000 0.125000
vt 0.875000 0.125000
vt 1.000000 0.125000
vt 0.000000 0.000000
vt 0.125000 0.000000
vt 0.250000 0.000000
vt 0.375000 0.000000
vt 0.500000 0.000000
vt 0.625000 0.000000
vt 0.750000 0.000000
vt 0.875000 0.000000
vt 1.000000 0.000000
vn -0.357407 0.357407 0.862856
vn -0.357407 0.357407 0.862856
vn -0.357407 0.357407 0.862856
vn -0.357407 0.357407 0.862856
vn -0.357407 0.357407 0.862856
vn -0.357407 0.357407 0.862856
vn 0.357407 0.357407 0.862856
vn 0.357407 0.357407 0.862856
vn 0.357407 0.357407 0.862856
vn 0.357407 0.357407 0.862856
vn 0.357407 0.357407 0.862856
vn 0.357407 0.357407 0.862856
vn 0.862856 0.357407 0.357407
vn 0.862856 0.357407 0.357407
vn 0.862856 0.357407 0.357407
vn 0.862856 0.357407 0.357407
vn 0.862856 0.357407 0.357407
vn 0.862856 0.357407 0.357407
vn 0.862856 0.357407 -0.357407
vn 0.862856 0.357407 -0.357407
vn 0.862856 0.357407 -0.357407
vn 0.862856 0.357407 -0.357407
vn 0.862856 0.357407 -0.357407
vn 0.862856 0.357407 -0.357407
vn 0.357407 0.357407 -0.862856
vn 0.357407 0.357407 -0.862856
vn 0.357407 0.357407 -0.862856
vn 0.357407 0.357407 -0.862856
vn 0.357407 0.357407 -0.862856
vn 0.357407 0.357407 -0.862856
vn -0.357407 0.357407 -0.862856
vn -0.357407 0.357407 -0.862856
vn -0.357407 0.357407 -0.862856
vn -0.357407 0.357407 -0.862856
vn -0.357407 0.357407 -0.862856
vn -0.357407 0.357407 -0.862856
vn -0.862856 0.357407 -0.357407
vn -0.862856 0.357407 -0.357407
vn -0.862856 0.357407 -0.357407
vn -0.862856 0.357407 -0.357407
vn -0.862856 0.357407 -0.357407
vn -0.862856 0.357407 -0.357407
vn -0.862856 0.357407 0.357407
vn -0.862856 0.357407 0.357407
vn -0.862856 0.357407 0.357407
vn -0.862856 0.357407 0.357407
vn -0.862856 0.357407 0.357407
vn -0.862856 0.357407 0.357407
vn -0.156558 0.912487 0.377964
vn -0.156558 0.912487 0.377964
vn -0.156558 0.912487 0.377964
vn -0.156558 0.912487 0.377964
vn -0.156558 0.912487 0.377964
vn -0.156558 0.912487 0.377964
vn 0.156558 0.912487 0.377964
vn 0.156558 0.912487 0.377964
vn 0.156558 0.912487 0.377964
vn 0.156558 0.912487 0.377964
vn 0.156558 0.912487 0.377964
vn 0.156558 0.912487 0.377964
vn 0.377964 0.912487 0.156558
vn 0.377964 0.912487 0.156558
vn 0.377964 0.912487 0.156558
vn 0.377964 0.912487 0.156558
vn 0.377964 0.912487 0.156558
vn 0.377964 0.912487 0.156558
vn 0.377964 0.912487 -0.156558
vn 0.377964 0.912487 -0.156558
vn 0.377964 0.912487 -0.156558
vn 0.377964 0.912487 -0.156558
vn 0.377964 0.912487 -0.156558
vn 0.377964 0.912487 -0.156558
vn 0.156558 0.912487 -0.377964
vn 0.156558 0.912487 -0.377964
vn 0.156558 0.912487 -0.377964
vn 0.156558 0.912487 -0.377964
vn 0.156558 0.912487 -0.377964
vn 0.156558 0.912487 -0.377964
vn -0.156558 0.912487 -0.377964
vn -0.156558 0.912487 -0.377964
vn -0.156558 0.912487 -0.377964
vn -0.156558 0.912487 -0.377964
vn -0.156558 0.912487 -0.377964
vn -0.156558 0.912487 -0.377964
vn -0.377964 0.912487 -0.156558
vn -0.377964 0.912487 -0.156558
vn -0.377964 0.912487 -0.156558
vn -0.377964 0.912487 -0.156558
vn -0.377964 0.912487 -0.156558
vn -0.377964 0.912487 -0.156558
vn -0.377964 0.912487 0.156558
vn -0.377964 0.912487 0.156558
vn -0.377964 0.912487 0.156558
vn -0.377964 0.912487 0.156558
vn -0.377964 0.912487 0.156558
vn -0.377964 0.912487 0.156558
vn 0.156558 0.912487 -0.377965
vn 0.156558 0.912487 -0.377965
vn 0.156558 0.912487 -0.377965
vn 0.156558 0.912487 -0.377965
vn 0.156558 0.912487 -0.377965
vn 0.156558 0.912487 -0.377965
vn -0.156558 0.912487 -0.377965
vn -0.156558 0.912487 -0.377965
vn -0.156558 0.912487 -0.377965
vn -0.156558 0.912487 -0.377965
vn -0.156558 0.912487 -0.377965
vn -0.156558 0.912487 -0.377965
vn -0.377964 0.912487 -0.156558
vn -0.377964 0.912487 -0.156558
vn -0.377965 0.912487 -0.156558
vn -0.377965 0.912487 -0.156558
vn -0.377964 0.912487 -0.156558
vn -0.377965 0.912487 -0.156558
vn -0.377964 0.912487 0.156558
vn -0.377964 0.912487 0.156558
vn -0.377965 0.912487 0.156558
vn -0.377965 0.912487 0.156558
vn -0.377964 0.912487 0.156558
vn -0.377964 0.912487 0.156558
vn -0.156558 0.912487 0.377965
vn -0.156558 0.912487 0.377965
vn -0.156558 0.912487 0.377965
vn -0.156558 0.912487 0.377965
vn -0.156558 0.912487 0.377965
vn -0.156558 0.912487 0.377965
vn 0.156558 0.912487 0.377965
vn 0.156558 0.912487 0.377965
vn 0.156558 0.912487 0.377965
vn 0.156558 0.912487 0.377965
vn 0.156558 0.912487 0.377965
vn 0.156558 0.912487 0.377965
vn 0.377965 0.912487 0.156558
vn 0.377965 0.912487 0.156558
vn 0.377965 0.912487 0.156558
vn 0.377965 0.912487 0.156558
vn 0.377965 0.912487 0.156558
vn 0.377965 0.912487 0.156558
vn 0.377965 0.912487 -0.156558
vn 0.377964 0.912487 -0.156558
vn 0.377965 0.912487 -0.156558
vn 0.377965 0.912487 -0.156558
vn 0.377964 0.912487 -0.156558
vn 0.377965 0.912487 -0.156558
vn 0.357407 0.357407 -0.862856
vn 0.357407 0.357407 -0.862856
vn 0.357407 0.357407 -0.862856
vn 0.357407 0.357407 -0.862856
vn 0.357407 0.357407 -0.862856
vn 0.357407 0.357407 -0.862856
vn -0.357407 0.357407 -0.862856
vn -0.357407 0.357407 -0.862856
vn -0.357407 0.357407 -0.862856
vn -0.357407 0.357407 -0.862856
vn -0.357407 0.357407 -0.862856
vn -0.357407 0.357407 -0.862856
vn -0.862856 0.357407 -0.357407
vn -0.862856 0.357407 -0.357407
vn -0.862856 0.357407 -0.357407
vn -0.862856 0.357407 -0.357407
vn -0.862856 0.357407 -0.357407
vn -0.862856 0.357407 -0.357407
vn -0.862856 0.357407 0.357407
vn -0.862856 0.357407 0.357407
vn -0.862856 0.357407 0.357407
vn -0.862856 0.357407 0.357407
vn -0.862856 0.357407 0.357407
vn -0.862856 0.357407 0.357407
vn -0.357407 0.357407 0.862856
vn -0.357407 0.357407 0.862856
vn -0.357407 0.357407 0.862856
vn -0.357407 0.357407 0.862856
vn -0.357407 0.357407 0.862856
vn -0.357407 0.357407 0.862856
vn 0.357407 0.357407 0.862856
vn 0.357407 0.357407 0.862856
vn 0.357407 0.357407 0.862856
vn 0.357407 0.357407 0.862856
vn 0.357407 0.357407 0.862856
vn 0.357407 0.357407 0.862856
vn 0.862856 0.357407 0.357407
vn 0.862856 0.357407 0.357407
vn 0.862856 0.357407 0.357407
vn 0.862856 0.357407 0.357407
vn 0.862856 0.357407 0.357407
vn 0.862856 0.357407 0.357407
vn 0.862856 0.357407 -0.357407
vn 0.862856 0.357407 -0.357407
vn 0.862856 0.357407 -0.357407
vn 0.862856 0.357407 -0.357407
vn 0.862856 0.357407 -0.357407
vn 0.862856 0.357407 -0.357407
vn 0.357407 -0.357407 -0.862856
vn 0.357407 -0.357407 -0.862856
vn 0.357407 -0.357407 -0.862856
vn 0.357407 -0.357407 -0.862856
vn 0.357407 -0.357407 -0.862856
vn 0.357407 -0.357407 -0.862856
vn -0.357407 -0.357407 -0.862856
vn -0.357407 -0.357407 -0.862856
vn -0.357407 -0.357407 -0.862856
vn -0.357407 -0.357407 -0.862856
vn -0.357407 -0.357407 -0.862856
vn -0.357407 -0.357407 -0.862856
vn -0.862856 -0.357407 -0.357407
vn -0.862856 -0.357407 -0.357407
vn -0.862856 -0.357407 -0.357407
vn -0.862856 -0.357407 -0.357407
vn -0.862856 -0.357407 -0.357407
vn -0.862856 -0.357407 -0.357407
vn -0.862856 -0.357407 0.357407
vn -0.862856 -0.357407 0.357407
vn -0.862856 -0.357407 0.357407
vn -0.862856 -0.357407 0.357407
vn -0.862856 -0.357407 0.357407
vn -0.862856 -0.357407 0.357407
vn -0.357407 -0.357407 0.862856
vn -0.357407 -0.357407 0.862856
vn -0.357407 -0.357407 0.862856
vn -0.357407 -0.357407 0.862856
vn -0.357407 -0.357407 0.862856
vn -0.357407 -0.357407 0.862856
vn 0.357407 -0.357407 0.862856
vn 0.357407 -0.357407 0.862856
vn 0.357407 -0.357407 0.862856
vn 0.357407 -0.357407 0.862856
vn 0.357407 -0.357407 0.862856
vn 0.357407 -0.357407 0.862856
vn 0.862856 -0.357407 0.357407
vn 0.862856 -0.357407 0.357407
vn 0.862856 -0.357407 0.357407
vn 0.862856 -0.357407 0.357407
vn 0.862856 -0.357407 0.357407
vn 0.862856 -0.357407 0.357407
vn 0.862856 -0.357407 -0.357407
vn 0.862856 -0.357407 -0.357407
vn 0.862856 -0.357407 -0.357407
vn 0.862856 -0.357407 -0.357407
vn 0.862856 -0.357407 -0.357407
vn 0.862856 -0.357407 -0.357407
vn 0.156558 -0.912487 -0.377965
vn 0.156558 -0.912487 -0.377965
vn 0.156558 -0.912487 -0.377965
vn 0.156558 -0.912487 -0.377965
vn 0.156558 -0.912487 -0.377965
vn 0.156558 -0.912487 -0.377965
vn -0.156558 -0.912487 -0.377965
vn -0.156558 -0.912487 -0.377965
vn -0.156558 -0.912487 -0.377965
vn -0.156558 -0.912487 -0.377965
vn -0.156558 -0.912487 -0.377965
vn -0.156558 -0.912487 -0.377965
vn -0.377964 -0.912487 -0.156558
vn -0.377964 -0.912487 -0.156558
vn -0.377964 -0.912487 -0.156558
vn -0.377964 -0.912487 -0.156558
vn -0.377964 -0.912487 -0.156558
vn -0.377964 -0.912487 -0.156558
vn -0.377964 -0.912487 0.156558
vn -0.377964 -0.912487 0.156558
vn -0.377964 -0.912487 0.156558
vn -0.377964 -0.912487 0.156558
vn -0.377964 -0.912487 0.156558
vn -0.377964 -0.912487 0.156558
vn -0.156558 -0.912487 0.377965
vn -0.156558 -0.912487 0.377965
vn -0.156558 -0.912487 0.377965
vn -0.156558 -0.912487 0.377965
vn -0.156558 -0.912487 0.377965
vn -0.156558 -0.912487 0.377965
vn 0.156558 -0.912487 0.377965
vn 0.156558 -0.912487 0.377965
vn 0.156558 -0.912487 0.377965
vn 0.156558 -0.912487 0.377965
vn 0.156558 -0.912487 0.377965
vn 0.156558 -0.912487 0.377965
vn 0.377965 -0.912487 0.156558
vn 0.377965 -0.912487 0.156558
vn 0.377965 -0.912487 0.156558
vn 0.377965 -0.912487 0.156558
vn 0.377965 -0.912487 0.156558
vn 0.377965 -0.912487 0.156558
vn 0.377965 -0.912487 -0.156558
vn 0.377965 -0.912487 -0.156558
vn 0.377964 -0.912487 -0.156558
vn 0.377964 -0.912487 -0.156558
vn 0.377965 -0.912487 -0.156558
vn 0.377964 -0.912487 -0.156558
vn -0.156558 -0.912487 0.377965
vn -0.156558 -0.912487 0.377965
vn -0.156558 -0.912487 0.377965
vn -0.156558 -0.912487 0.377965
vn -0.156558 -0.912487 0.377965
vn -0.156558 -0.912487 0.377965
vn 0.156558 -0.912487 0.377965
vn 0.156558 -0.912487 0.377965
vn 0.156558 -0.912487 0.377965
vn 0.156558 -0.912487 0.377965
vn 0.156558 -0.912487 0.377965
vn 0.156558 -0.912487 0.377965
vn 0.377964 -0.912487 0.156558
vn 0.377964 -0.912487 0.156558
vn 0.377964 -0.912487 0.156558
vn 0.377964 -0.912487 0.156558
vn 0.377964 -0.912487 0.156558
vn 0.377964 -0.912487 0.156558
vn 0.377964 -0.912487 -0.156558
vn 0.377964 -0.912487 -0.156558
vn 0.377964 -0.912487 -0.156558
vn 0.377964 -0.912487 -0.156558
vn 0.377964 -0.912487 -0.156558
vn 0.377964 -0.912487 -0.156558
vn 0.156558 -0.912487 -0.377965
vn 0.156558 -0.912487 -0.377965
vn 0.156558 -0.912487 -0.377965
vn 0.156558 -0.912487 -0.377965
vn 0.156558 -0.912487 -0.377965
vn 0.156558 -0.912487 -0.377965
vn -0.156558 -0.912487 -0.377965
vn -0.156558 -0.912487 -0.377964
vn -0.156558 -0.912487 -0.377965
vn -0.156558 -0.912487 -0.377965
vn -0.156558 -0.912487 -0.377964
vn -0.156558 -0.912487 -0.377965
vn -0.377964 -0.912487 -0.156558
vn -0.377964 -0.912487 -0.156558
vn -0.377964 -0.912487 -0.156558
vn -0.377964 -0.912487 -0.156558
vn -0.377964 -0.912487 -0.156558
vn -0.377964 -0.912487 -0.156558
vn -0.377964 -0.912487 0.156558
vn -0.377964 -0.912487 0.156558
vn -0.377964 -0.912487 0.156558
vn -0.377964 -0.912487 0.156558
vn -0.377964 -0.912487 0.156558
vn -0.377964 -0.912487 0.156558
vn -0.357407 -0.357407 0.862856
vn -0.357407 -0.357407 0.862856
vn -0.357407 -0.357407 0.862856
vn -0.357407 -0.357407 0.862856
vn -0.357407 -0.357407 0.862856
vn -0.357407 -0.357407 0.862856
vn 0.357407 -0.357407 0.862856
vn 0.357407 -0.357407 0.862856
vn 0.357407 -0.357407 0.862856
vn 0.357407 -0.357407 0.862856
vn 0.357407 -0.357407 0.862856
vn 0.357407 -0.357407 0.862856
vn 0.862856 -0.357407 0.357407
vn 0.862856 -0.357407 0.357407
vn 0.862856 -0.357407 0.357407
vn 0.862856 -0.357407 0.357407
vn 0.862856 -0.357407 0.357407
vn 0.862856 -0.357407 0.357407
vn 0.862856 -0.357407 -0.357407
vn 0.862856 -0.357407 -0.357407
vn 0.862856 -0.357407 -0.357407
vn 0.862856 -0.357407 -0.357407
vn 0.862856 -0.357407 -0.357407
vn 0.862856 -0.357407 -0.357407
vn 0.357407 -0.357407 -0.862856
vn 0.357407 -0.357407 -0.862856
vn 0.357407 -0.357407 -0.862856
vn 0.357407 -0.357407 -0.862856
vn 0.357407 -0.357407 -0.862856
vn 0.357407 -0.357407 -0.862856
vn -0.357407 -0.357407 -0.862856
vn -0.357407 -0.357407 -0.862856
vn -0.357407 -0.357407 -0.862856
vn -0.357407 -0.357407 -0.862856
vn -0.357407 -0.357407 -0.862856
vn -0.357407 -0.357407 -0.862856
vn -0.862856 -0.357407 -0.357407
vn -0.862856 -0.357407 -0.357407
vn -0.862856 -0.357407 -0.357407
vn -0.862856 -0.357407 -0.357407
vn -0.862856 -0.357407 -0.357407
vn -0.862856 -0.357407 -0.357407
vn -0.862856 -0.357407 0.357407
vn -0.862856 -0.357407 0.357407
vn -0.862856 -0.357407 0.357407
vn -0.862856 -0.357407 0.357407
vn -0.862856 -0.357407 0.357407
vn -0.862856 -0.357407 0.357407
s off
g Torus:Shape
usemtl Torus:initialShadingGroup
f 2/1/1 1/2/2 10/4/3
f 10/4/4 1/2/5 9/3/6
f 3/5/7 2/1/8 11/6/9
f 11/6/10 2/1/11 10/4/12
f 4/7/13 3/5/14 12/8/15
f 12/8/16 3/5/17 11/6/18
f 5/9/19 4/7/20 13/10/21
f 13/10/22 4/7/23 12/8/24
f 6/11/25 5/9/26 14/12/27
f 14/12/28 5/9/29 13/10/30
f 7/13/31 6/11/32 15/14/33
f 15/14/34 6/11/35 14/12/36
f 8/15/37 7/13/38 16/16/39
f 16/16/40 7/13/41 15/14/42
f 1/17/43 8/15/44 9/18/45
f 9/18/46 8/15/47 16/16/48
f 10/4/49 9/3/50 18/20/51
f 18/20/52 9/3/53 17/19/54
f 11/6/55 10/4/56 19/21/57
f 19/21/58 10/4/59 18/20/60
f 12/8/61 11/6/62 20/22/63
f 20/22/64 11/6/65 19/21/66
f 13/10/67 12/8/68 21/23/69
f 21/23/70 12/8/71 20/22/72
f 14/12/73 13/10/74 22/24/75
f 22/24/76 13/10/77 21/23/78
f 15/14/79 14/12/80 23/25/81
f 23/25/82 14/12/83 22/24/84
f 16/16/85 15/14/86 24/26/87
f 24/26/88 15/14/89 23/25/90
f 9/18/91 16/16/92 17/27/93
f 17/27/94 16/16/95 24/26/96
f 18/20/97 17/19/98 26/29/99
f 26/29/100 17/19/101 25/28/102
f 19/21/103 18/20/104 27/30/105
f 27/30/106 18/20/107 26/29/108
f 20/22/109 19/21/110 28/31/111
f 28/31/112 19/21/113 27/30/114
f 21/23/115 20/22/116 29/32/117
f 29/32/118 20/22/119 28/31/120
f 22/24/121 21/23/122 30/33/123
f 30/33/124 21/23/125 29/32/126
f 23/25/127 22/24/128 31/34/129
f 31/34/130 22/24/131 30/33/132
f 24/26/133 23/25/134 32/35/135
f 32/35/136 23/25/137 31/34/138
f 17/27/139 24/26/140 25/36/141
f 25/36/142 24/26/143 32/35/144
f 26/29/145 25/28/146 34/38/147
f 34/38/148 25/28/149 33/37/150
f 27/30/151 26/29/152 35/39/153
f 35/39/154 26/29/155 34/38/156
f 28/31/157 27/30/158 36/40/159
f 36/40/160 27/30/161 35/39/162
f 29/32/163 28/31/164 37/41/165
f 37/41/166 28/31/167 36/40/168
f 30/33/169 29/32/170 38/42/171
f 38/42/172 29/32/173 37/41/174
f 31/34/175 30/33/176 39/43/177
f 39/43/178 30/33/179 38/42/180
f 32/35/181 31/34/182 40/44/183
f 40/44/184 31/34/185 39/43/186
f 25/36/187 32/35/188 33/45/189
f 33/45/190 32/35/191 40/44/192
f 34/38/193 33/37/194 42/47/195
f 42/47/196 33/37/197 41/46/198
f 35/39/199 34/38/200 43/48/201
f 43/48/202 34/38/203 42/47/204
f 36/40/205 35/39/206 44/49/207
f 44/49/208 35/39/209 43/48/210
f 37/41/211 36/40/212 45/50/213
f 45/50/214 36/40/215 44/49/216
f 38/42/217 37/41/218 46/51/219
f 46/51/220 37/41/221 45/50/222
f 39/43/223 38/42/224 47/52/225
f 47/52/226 38/42/227 46/51/228
f 40/44/229 39/43/230 48/53/231
f 48/53/232 39/43/233 47/52/234
f 33/45/235 40/44/236 41/54/237
f 41/54/238 40/44/239 48/53/240
f 42/47/241 41/46/242 50/56/243
f 50/56/244 41/46/245 49/55/246
f 43/48/247 42/47/248 51/57/249
f 51/57/250 42/47/251 50/56/252
f 44/49/253 43/48/254 52/58/255
f 52/58/256 43/48/257 51/57/258
f 45/50/259 44/49/260 53/59/261
f 53/59/262 44/49/263 52/58/264
f 46/51/265 45/50/266 54/60/267
f 54/60/268 45/50/269 53/59/270
f 47/52/271 46/51/272 55/61/273
f 55/61/274 46/51/275 54/60/276
f 48/53/277 47/52/278 56/62/279
f 56/62/280 47/52/281 55/61/282
f 41/54/283 48/53/284 49/63/285
f 49/63/286 48/53/287 56/62/288
f 50/56/289 49/55/290 58/65/291
f 58/65/292 49/55/293 57/64/294
f 51/57/295 50/56/296 59/66/297
f 59/66/298 50/56/299 58/65/300
f 52/58/301 51/57/302 60/67/303
f 60/67/304 51/57/305 59/66/306
f 53/59/307 52/58/308 61/68/309
f 61/68/310 52/58/311 60/67/312
f 54/60/313 53/59/314 62/69/315
f 62/69/316 53/59/317 61/68/318
f 55/61/319 54/60/320 63/70/321
f 63/70/322 54/60/323 62/69/324
f 56/62/325 55/61/326 64/71/327
f 64/71/328 55/61/329 63/70/330
f 49/63/331 56/62/332 57/72/333
f 57/72/334 56/62/335 64/71/336
f 58/65/337 57/64/338 2/74/339
f 2/74/340 57/64/341 1/73/342
f 59/66/343 58/65/344 3/75/345
f 3/75/346 58/65/347 2/74/348
f 60/67/349 59/66/350 4/76/351
f 4/76/352 59/66/353 3/75/354
f 61/68/355 60/67/356 5/77/357
f 5/77/358 60/67/359 4/76/360
f 62/69/361 61/68/362 6/78/363
f 6/78/364 61/68/365 5/77/366
f 63/70/367 62/69/368 7/79/369
f 7/79/370 62/69/371 6/78/372
f 64/71/373 63/70/374 8/80/375
f 8/80/376 63/70/377 7/79/378
f 57/72/379 64/71/380 1/81/381
f 1/81/382 64/71/383 8/80/384
