# This file uses centimeters as units for non-parametric coordinates.

mtllib Tree.mtl
g default
v 1.352188 1.720464 -1.819563
v -0.298577 1.835657 -2.044455
v -1.067224 1.797259 -1.803524
v -2.024120 1.957249 0.144048
v -1.296541 1.874055 1.522968
v -0.314615 2.085242 2.325621
v 1.887163 1.976448 1.582931
v 1.973556 1.748167 -0.297736
v 0.134463 9.111126 -0.119087
v 1.248642 5.503265 0.151290
v 0.922306 5.529198 0.939134
v 0.134463 5.546481 1.134762
v -0.653381 5.520547 0.939134
v -0.979716 5.520547 0.151290
v -0.653381 5.468682 -0.636553
v 0.134463 5.468682 -0.962889
v 0.922306 5.468682 -0.636553
v 1.339478 3.799724 -0.015725
v 0.986537 3.960090 0.836350
v 0.134463 4.020420 1.189290
v -0.717612 3.855618 0.836350
v -1.070552 3.829186 -0.015725
v -0.717612 3.917075 -0.867799
v 0.134463 3.917075 -1.220740
v 0.986537 3.928980 -0.867799
v 1.732238 5.673981 -0.318931
v 1.428530 5.552240 1.103176
v 0.280756 5.416314 1.406741
v -0.790525 5.483084 1.026539
v -1.243873 5.688926 0.028405
v -0.834413 5.484277 -1.233056
v 0.075945 5.397787 -1.540111
v 1.191114 5.612750 -1.086763
v 1.873430 3.964993 0.191318
v 1.347354 4.039467 1.479008
v -0.002667 3.943714 1.917819
v -1.035302 4.018189 1.641697
v -1.650419 3.738201 0.081049
v -1.294448 3.794601 -1.346725
v 0.273653 3.900790 -1.715234
v 1.552501 3.934717 -1.292286
v -0.509334 6.504540 -0.939224
v 0.103093 6.465446 -1.039450
v 0.931009 6.796147 -0.726749
v 1.338404 6.704260 -0.031766
v 0.746131 6.704260 0.914011
v 0.077670 6.942541 1.017125
v -0.663703 6.795030 0.618625
v -0.912651 6.816847 -0.097701
v 0.995861 5.125254 1.028746
v 1.378301 5.008297 0.136050
v 1.095793 5.251608 -0.855356
v 0.193755 5.008297 -1.182392
v -0.834530 4.860120 -0.879117
v -1.132333 4.819168 0.087921
v -0.721422 4.950859 1.112954
v 0.073152 5.030750 1.441259
v 1.607149 3.009363 -0.298367
v 1.018544 3.313459 -1.324734
v -0.063570 3.311923 -1.574563
v -0.764296 2.993034 -1.317800
v -1.330610 3.054622 -0.107360
v -0.863442 3.177636 0.857221
v -0.070504 3.118154 1.356847
v 1.171965 3.002385 0.818588
v 0.054539 1.898017 -0.061732
v -0.041118 1.898017 -0.074764
v -0.085659 1.898017 -0.060803
v -0.141108 1.898017 0.052053
v -0.098948 1.898017 0.131958
v -0.042048 1.898017 0.178469
v 0.085539 1.898017 0.135432
v 0.090545 1.898017 0.026453
v 0.192723 -0.000000 -0.258368
v -0.068534 -0.000000 -0.293960
v 0.000000 -0.000000 0.000000
v -0.190184 -0.000000 -0.255830
v -0.341625 -0.000000 0.052401
v -0.226477 -0.000000 0.270635
v -0.071073 -0.000000 0.397665
v 0.277389 -0.000000 0.280124
v 0.291062 -0.000000 -0.017518
v -0.181543 1.134099 0.052123
v -0.124665 1.134099 0.159923
v -0.047901 1.134099 0.222671
v 0.124226 1.134099 0.164610
v 0.130980 1.134099 0.017586
v 0.082404 1.134099 -0.101384
v -0.046647 1.134099 -0.118966
v -0.106737 1.134099 -0.100131
vt 0.610485 0.045765
vt 0.500000 0.000000
vt 0.389515 0.045765
vt 0.343750 0.156250
vt 0.389515 0.266735
vt 0.500000 0.312500
vt 0.610485 0.266735
vt 0.656250 0.156250
vt 0.375000 0.312500
vt 0.406250 0.312500
vt 0.437500 0.312500
vt 0.468750 0.312500
vt 0.500000 0.312500
vt 0.531250 0.312500
vt 0.562500 0.312500
vt 0.593750 0.312500
vt 0.625000 0.312500
vt 0.500000 0.688440
vt 0.500000 0.150000
vt 0.593750 0.500190
vt 0.562500 0.500190
vt 0.531250 0.500190
vt 0.500000 0.500190
vt 0.468750 0.500190
vt 0.437500 0.500190
vt 0.406250 0.500190
vt 0.625000 0.500190
vt 0.375000 0.500190
vt 0.593750 0.414175
vt 0.562500 0.414175
vt 0.531250 0.414175
vt 0.500000 0.414175
vt 0.468750 0.414175
vt 0.437500 0.414175
vt 0.406250 0.414175
vt 0.625000 0.414175
vt 0.375000 0.414175
vt 0.593750 0.505695
vt 0.562500 0.505695
vt 0.531250 0.505695
vt 0.500000 0.505695
vt 0.468750 0.505695
vt 0.437500 0.505695
vt 0.406250 0.505695
vt 0.625000 0.505695
vt 0.375000 0.505695
vt 0.593750 0.420368
vt 0.562500 0.420368
vt 0.531250 0.420368
vt 0.500000 0.420368
vt 0.468750 0.420368
vt 0.437500 0.420368
vt 0.406250 0.420368
vt 0.625000 0.420368
vt 0.375000 0.420368
vt 0.462644 0.579214
vt 0.442835 0.577010
vt 0.583089 0.566968
vt 0.416912 0.566968
vt 0.563665 0.564339
vt 0.539532 0.572851
vt 0.520274 0.569883
vt 0.500000 0.555161
vt 0.477321 0.555814
vt 0.562500 0.462515
vt 0.593750 0.460279
vt 0.625000 0.460279
vt 0.375000 0.460279
vt 0.406250 0.460279
vt 0.437500 0.460279
vt 0.468750 0.460279
vt 0.500000 0.460279
vt 0.531250 0.460279
vt 0.593750 0.363337
vt 0.625000 0.363337
vt 0.375000 0.363337
vt 0.406250 0.363337
vt 0.437500 0.363337
vt 0.468750 0.363337
vt 0.500000 0.363337
vt 0.531250 0.363337
vt 0.562500 0.373505
vt 0.500000 0.000000
vt 0.610485 0.045765
vt 0.389515 0.045765
vt 0.343750 0.156250
vt 0.389515 0.266735
vt 0.500000 0.312500
vt 0.610485 0.266735
vt 0.656250 0.156250
vt 0.500000 0.000000
vt 0.610485 0.045765
vt 0.389515 0.045765
vt 0.343750 0.156250
vt 0.389515 0.266735
vt 0.500000 0.312500
vt 0.610485 0.266735
vt 0.656250 0.156250
vt 0.343750 0.156250
vt 0.389515 0.266735
vt 0.500000 0.312500
vt 0.610485 0.266735
vt 0.656250 0.156250
vt 0.610485 0.045765
vt 0.500000 0.000000
vt 0.389515 0.045765
vn 0.200895 0.444627 -0.872896
vn 0.223934 0.474637 -0.851219
vn 0.281416 0.547899 -0.787789
vn 0.305443 0.577767 -0.756894
vn -0.496813 0.553438 -0.668493
vn -0.375166 0.450023 -0.810389
vn -0.421842 0.490402 -0.762598
vn -0.346437 0.424809 -0.836372
vn -0.872318 0.248993 -0.420790
vn -0.880398 0.307205 -0.361282
vn -0.873819 0.257263 -0.412620
vn -0.882123 0.335306 -0.330801
vn -0.883583 0.249802 0.396081
vn -0.901519 0.215901 0.375034
vn -0.885891 0.245638 0.393521
vn -0.906254 0.206290 0.368983
vn -0.520575 0.137912 0.842604
vn -0.424430 0.243165 0.872199
vn -0.497059 0.165085 0.851868
vn -0.411777 0.255961 0.874599
vn 0.402415 0.077972 0.912131
vn 0.390900 0.064025 0.918204
vn 0.401181 0.076470 0.912801
vn 0.385525 0.057565 0.920900
vn 0.915803 0.182148 0.357949
vn 0.916507 0.180818 0.356820
vn 0.920202 0.173724 0.350783
vn 0.921149 0.171874 0.349205
vn 0.856669 0.335469 -0.391892
vn 0.859302 0.347557 -0.375240
vn 0.865321 0.385984 -0.319742
vn 0.866568 0.400137 -0.298245
vn 0.000000 -1.000000 0.000000
vn 0.000000 -1.000000 0.000000
vn 0.000000 -1.000000 0.000000
vn 0.000000 -1.000000 0.000000
vn 0.000000 -1.000000 0.000000
vn 0.000000 -1.000000 0.000000
vn 0.000000 -1.000000 0.000004
vn 0.000000 -1.000000 0.000004
vn 0.000000 -1.000000 0.000004
vn 0.000000 -1.000000 -0.000003
vn 0.000000 -1.000000 -0.000003
vn 0.000000 -1.000000 -0.000003
vn 0.000000 -1.000000 0.000000
vn 0.000000 -1.000000 0.000000
vn 0.000000 -1.000000 0.000000
vn 0.000000 -1.000000 -0.000002
vn 0.000000 -1.000000 -0.000002
vn 0.000000 -1.000000 -0.000002
vn 0.000000 -1.000000 -0.000002
vn 0.000000 -1.000000 -0.000002
vn 0.000000 -1.000000 -0.000002
vn 0.000000 -1.000000 0.000003
vn 0.000000 -1.000000 0.000003
vn 0.000000 -1.000000 0.000003
vn 0.030681 -0.998490 0.045575
vn 0.273105 -0.961982 -0.002117
vn 0.125636 -0.991701 0.027281
vn 0.322283 -0.946565 -0.012204
vn -0.114084 -0.918632 -0.378285
vn 0.061369 -0.986183 -0.153873
vn -0.064404 -0.946302 -0.316805
vn 0.084706 -0.988847 -0.122499
vn 0.096329 -0.960631 -0.260593
vn 0.115319 -0.872719 -0.474409
vn 0.106246 -0.924268 -0.366662
vn 0.115660 -0.870308 -0.478734
vn 0.210434 -0.973715 -0.087165
vn 0.023146 -0.998591 -0.047746
vn -0.537731 -0.839282 0.080311
vn -0.563862 -0.821303 0.086729
vn -0.483624 -0.863435 -0.143481
vn -0.417499 -0.905924 -0.070689
vn -0.304462 -0.951472 0.044776
vn -0.286728 -0.956002 0.062024
vn -0.009617 -0.999684 -0.023218
vn -0.025602 -0.999089 0.034141
vn -0.036887 -0.996519 0.074760
vn -0.051321 -0.990591 0.126867
vn 0.102394 -0.963539 -0.247200
vn 0.139364 -0.989514 0.037953
vn 0.123244 -0.987593 -0.097321
vn 0.146518 -0.983519 0.105942
vn 0.270822 -0.960078 -0.070035
vn 0.283059 -0.953267 -0.105642
vn 0.277094 -0.956790 -0.088153
vn 0.291069 -0.947891 -0.129540
vn 0.192936 -0.946661 0.258085
vn 0.137846 -0.973563 0.182134
vn 0.090764 -0.988942 0.117281
vn 0.067310 -0.994105 0.084994
vn -0.015797 -0.991217 0.131297
vn 0.010283 -0.999690 0.022673
vn 0.026319 -0.998661 -0.044529
vn 0.038880 -0.994487 -0.097391
vn 0.091406 -0.968516 0.231566
vn 0.016901 -0.999105 0.038771
vn 0.035635 -0.995551 0.087229
vn -0.041559 -0.992799 -0.112353
vn 0.149816 -0.988215 -0.031401
vn -0.006096 -0.986943 0.160955
vn 0.055293 -0.994729 0.086349
vn -0.027965 -0.981927 0.187184
vn 0.148282 -0.988115 -0.040501
vn 0.181314 -0.983399 -0.007138
vn 0.193673 -0.981051 0.005454
vn 0.199005 -0.979938 0.010906
vn 0.015429 -0.999187 0.037250
vn 0.092943 -0.987449 0.127694
vn 0.071856 -0.992070 0.103117
vn 0.098235 -0.986120 0.133859
vn 0.000296 -0.999455 0.032999
vn 0.010587 -0.999647 0.024348
vn 0.018316 -0.999673 0.017847
vn 0.021505 -0.999654 0.015164
vn -0.078280 -0.989953 -0.117748
vn 0.069060 -0.993221 -0.093506
vn 0.234166 -0.970120 -0.063512
vn 0.312347 -0.948744 -0.048205
vn 0.929591 0.293019 0.223609
vn 0.890986 0.352104 0.286649
vn 0.793743 0.457258 0.401107
vn 0.730212 0.507627 0.457280
vn 0.214234 0.280535 0.935630
vn 0.220793 0.277884 0.934896
vn 0.227151 0.275297 0.934138
vn 0.240075 0.269983 0.932455
vn -0.317262 0.194718 0.928133
vn -0.356684 0.218042 0.908424
vn -0.420513 0.255768 0.870490
vn -0.497271 0.301063 0.813684
vn -0.869970 0.221134 0.440740
vn -0.876310 0.235338 0.420353
vn -0.887940 0.265212 0.375799
vn -0.898292 0.299714 0.321315
vn -0.913800 0.230991 -0.334086
vn -0.897178 0.254734 -0.360808
vn -0.832990 0.329676 -0.444344
vn -0.764939 0.391112 -0.511762
vn -0.270383 0.345005 -0.898813
vn -0.232626 0.366162 -0.901005
vn -0.198809 0.384332 -0.901534
vn -0.119845 0.424006 -0.897695
vn 0.277219 0.402142 -0.872600
vn 0.263596 0.385408 -0.884295
vn 0.240718 0.357224 -0.902466
vn 0.216598 0.327406 -0.919723
vn 0.756805 0.336769 -0.560208
vn 0.772905 0.362625 -0.520693
vn 0.787236 0.387865 -0.479396
vn 0.804822 0.423540 -0.415783
vn 0.905746 0.226229 0.358391
vn 0.905297 0.227417 0.358773
vn 0.900102 0.240840 0.363059
vn 0.898672 0.244436 0.364197
vn 0.324344 0.454476 0.829610
vn 0.269877 0.323646 0.906874
vn 0.320117 0.443999 0.836893
vn 0.238437 0.251512 0.938024
vn -0.372277 0.506471 0.777751
vn -0.352137 0.476513 0.805565
vn -0.276310 0.364487 0.889271
vn -0.238747 0.309368 0.920484
vn -0.916026 0.213095 0.339835
vn -0.915719 0.208309 0.343606
vn -0.912609 0.174472 0.369737
vn -0.911340 0.164197 0.377490
vn -0.892541 0.369008 -0.259234
vn -0.896311 0.261497 -0.358114
vn -0.894528 0.351294 -0.276428
vn -0.893832 0.229308 -0.385333
vn -0.311560 0.375957 -0.872689
vn -0.338683 0.423625 -0.840140
vn -0.317331 0.386042 -0.866183
vn -0.344707 0.434310 -0.832197
vn 0.050924 0.728882 -0.682743
vn 0.297901 0.495762 -0.815767
vn 0.106956 0.685073 -0.720580
vn 0.343677 0.439852 -0.829709
vn 0.752993 0.655840 -0.053615
vn 0.781490 0.616847 -0.093669
vn 0.887575 0.314958 -0.336173
vn 0.891794 0.245315 -0.380162
vn -0.132252 0.327073 -0.935699
vn -0.132252 0.327073 -0.935699
vn -0.132252 0.327073 -0.935699
vn 0.221146 0.318086 -0.921909
vn 0.221146 0.318086 -0.921909
vn 0.221146 0.318086 -0.921909
vn 0.815226 0.392330 -0.426009
vn 0.815226 0.392330 -0.426009
vn 0.815226 0.392330 -0.426009
vn 0.774840 0.405188 0.485227
vn 0.774840 0.405188 0.485227
vn 0.774840 0.405188 0.485227
vn 0.287666 0.438560 0.851418
vn 0.287666 0.438560 0.851419
vn 0.287666 0.438560 0.851418
vn -0.493530 0.413746 0.765011
vn -0.493529 0.413747 0.765011
vn -0.493529 0.413746 0.765011
vn -0.863192 0.396872 0.312076
vn -0.863192 0.396872 0.312076
vn -0.863192 0.396872 0.312077
vn -0.785507 0.353774 -0.507763
vn -0.785507 0.353774 -0.507763
vn -0.785507 0.353774 -0.507763
vn 0.852229 0.410424 0.324434
vn 0.852376 0.416068 0.316769
vn 0.852282 0.412159 0.322087
vn 0.852441 0.420974 0.310040
vn 0.902333 0.380272 -0.202950
vn 0.901731 0.384889 -0.196828
vn 0.899839 0.397248 -0.180231
vn 0.895911 0.417077 -0.152937
vn 0.280042 0.388401 -0.877907
vn 0.242380 0.411698 -0.878497
vn 0.266108 0.397149 -0.878328
vn 0.200283 0.436461 -0.877148
vn -0.231785 0.473069 -0.849989
vn -0.244408 0.461123 -0.853013
vn -0.275755 0.430507 -0.859432
vn -0.311775 0.393582 -0.864806
vn -0.865494 0.460298 -0.197601
vn -0.869594 0.439062 -0.225899
vn -0.866905 0.453666 -0.206550
vn -0.872318 0.419680 -0.250860
vn -0.860620 0.437442 0.260727
vn -0.861022 0.433954 0.265188
vn -0.862134 0.422574 0.279563
vn -0.862917 0.411717 0.293027
vn -0.183005 0.530734 0.827545
vn -0.295040 0.459103 0.837959
vn -0.239834 0.495845 0.834636
vn -0.384620 0.392998 0.835237
vn 0.262979 0.371937 0.890228
vn 0.301881 0.420620 0.855539
vn 0.275629 0.387791 0.879572
vn 0.325604 0.450196 0.831448
vn 0.881768 0.298203 -0.365458
vn 0.880791 0.293700 -0.371413
vn 0.876502 0.275975 -0.394439
vn 0.869763 0.252475 -0.423991
vn 0.148698 0.278361 -0.948896
vn 0.160248 0.287906 -0.944156
vn 0.185513 0.308651 -0.932909
vn 0.211898 0.330112 -0.919851
vn -0.290258 0.422339 -0.858708
vn -0.367878 0.383751 -0.846995
vn -0.385832 0.374192 -0.843276
vn -0.454830 0.335048 -0.825150
vn -0.804721 0.410259 -0.429083
vn -0.807469 0.406955 -0.427061
vn -0.820264 0.391152 -0.417333
vn -0.831619 0.376502 -0.408236
vn -0.765889 0.475493 0.432805
vn -0.768760 0.493275 0.407048
vn -0.771400 0.516154 0.372193
vn -0.772685 0.557755 0.303097
vn -0.568041 0.630435 0.529039
vn -0.524602 0.597909 0.606051
vn -0.511691 0.587919 0.626517
vn -0.427179 0.519765 0.739839
vn 0.277810 0.621423 0.732567
vn 0.306872 0.661662 0.684130
vn 0.288001 0.635662 0.716233
vn 0.337103 0.702208 0.627108
vn 0.830145 0.556769 -0.029447
vn 0.890806 0.424058 0.163216
vn 0.848258 0.529390 0.014320
vn 0.898847 0.261313 0.351838
vn -0.004391 -0.999471 0.032217
vn -0.075464 -0.996143 0.044770
vn -0.069775 -0.996602 0.043771
vn -0.075614 -0.996130 0.044797
vn 0.009528 -0.999492 0.030400
vn 0.049859 -0.998417 0.026036
vn 0.057700 -0.998016 0.025181
vn 0.057747 -0.998014 0.025176
vn -0.032209 -0.999356 -0.015826
vn -0.023039 -0.997257 0.070339
vn -0.023453 -0.997511 0.066500
vn -0.023009 -0.997238 0.070617
vn 0.012407 -0.999902 -0.006541
vn -0.033386 -0.998539 -0.042493
vn -0.030180 -0.998745 -0.039977
vn -0.033490 -0.998532 -0.042574
vn 0.008264 -0.999915 -0.010113
vn 0.114124 -0.989486 0.088849
vn 0.128329 -0.986456 0.102157
vn 0.128509 -0.986415 0.102325
vn 0.030586 -0.995410 0.090680
vn -0.019002 -0.996475 0.081710
vn -0.021696 -0.996460 0.081217
vn -0.021851 -0.996459 0.081188
vn -0.079957 -0.996792 -0.003674
vn -0.051705 -0.991701 0.117706
vn -0.053835 -0.992612 0.108738
vn -0.051635 -0.991670 0.118000
vn -0.074115 -0.996790 0.030265
vn -0.072138 -0.996331 0.046046
vn -0.071957 -0.996277 0.047478
vn -0.071953 -0.996276 0.047514
vn 0.134775 0.056266 -0.989277
vn 0.134774 0.056266 -0.989277
vn 0.134774 0.056266 -0.989277
vn 0.134774 0.056266 -0.989277
vn -0.298600 0.057284 -0.952658
vn -0.298600 0.057284 -0.952658
vn -0.298600 0.057284 -0.952658
vn -0.298600 0.057284 -0.952658
vn -0.896511 0.047413 -0.440477
vn -0.896511 0.047413 -0.440476
vn -0.896511 0.047413 -0.440477
vn -0.896511 0.047413 -0.440477
vn -0.883467 0.046806 0.466149
vn -0.883467 0.046806 0.466149
vn -0.883467 0.046806 0.466149
vn -0.883467 0.046806 0.466149
vn -0.632106 0.049588 0.773294
vn -0.632106 0.049588 0.773294
vn -0.632106 0.049588 0.773294
vn -0.632106 0.049588 0.773294
vn 0.319183 0.052307 0.946248
vn 0.319183 0.052307 0.946249
vn 0.319183 0.052307 0.946249
vn 0.319183 0.052307 0.946249
vn 0.997581 0.052271 0.045824
vn 0.997581 0.052271 0.045824
vn 0.997581 0.052271 0.045824
vn 0.997581 0.052271 0.045824
vn 0.924487 0.053316 -0.377466
vn 0.924487 0.053316 -0.377467
vn 0.924487 0.053316 -0.377466
vn 0.924487 0.053316 -0.377467
vn -0.877612 0.123991 0.463059
vn -0.877612 0.123991 0.463059
vn -0.877612 0.123991 0.463060
vn -0.877612 0.123991 0.463060
vn -0.627409 0.131254 0.767548
vn -0.627409 0.131254 0.767548
vn -0.627409 0.131254 0.767548
vn -0.627409 0.131254 0.767548
vn 0.316547 0.138335 0.938435
vn 0.316547 0.138335 0.938435
vn 0.316547 0.138335 0.938436
vn 0.316547 0.138335 0.938436
vn 0.989355 0.138244 0.045447
vn 0.989355 0.138244 0.045446
vn 0.989355 0.138244 0.045446
vn 0.989355 0.138244 0.045446
vn 0.916560 0.140959 -0.374231
vn 0.916560 0.140959 -0.374230
vn 0.916560 0.140959 -0.374230
vn 0.916560 0.140959 -0.374230
vn 0.133489 0.148616 -0.979844
vn 0.133489 0.148616 -0.979844
vn 0.133489 0.148616 -0.979844
vn 0.133489 0.148616 -0.979844
vn -0.295650 0.151251 -0.943247
vn -0.295650 0.151251 -0.943247
vn -0.295650 0.151251 -0.943247
vn -0.295650 0.151251 -0.943247
vn -0.890416 0.125578 -0.437482
vn -0.890416 0.125578 -0.437482
vn -0.890416 0.125578 -0.437482
vn -0.890416 0.125578 -0.437482
s 1
g pasted__tree_1 group
usemtl pasted__lambert2SG
f 60/77/1 24/35/2 59/76/3
f 59/76/3 24/35/2 25/37/4
s 2
f 60/77/5 61/78/6 24/35/7
f 24/35/7 61/78/6 23/34/8
s 3
f 61/78/9 62/79/10 23/34/11
f 23/34/11 62/79/10 22/33/12
s 4
f 62/79/13 63/80/14 22/33/15
f 22/33/15 63/80/14 21/32/16
s 5
f 63/80/17 64/81/18 21/32/19
f 21/32/19 64/81/18 20/31/20
s 6
f 64/81/21 65/82/22 20/31/23
f 20/31/23 65/82/22 19/30/24
s 7
f 58/74/25 18/29/26 65/82/27
f 65/82/27 18/29/26 19/30/28
s 8
f 59/75/29 25/36/30 58/74/31
f 58/74/31 25/36/30 18/29/32
s off
usemtl pasted__lambert3SG
f 75/91/33 74/92/34 76/19/35
f 77/93/36 75/91/37 76/19/38
f 78/94/39 77/93/40 76/19/41
f 79/95/42 78/94/43 76/19/44
f 80/96/45 79/95/46 76/19/47
f 81/97/48 80/96/49 76/19/50
f 82/98/51 81/97/52 76/19/53
f 74/92/54 82/98/55 76/19/56
s 9
usemtl pasted__lambert2SG
f 11/21/57 10/20/58 27/39/59
f 27/39/59 10/20/58 26/38/60
s 10
f 12/22/61 11/21/62 28/40/63
f 28/40/63 11/21/62 27/39/64
s 11
f 13/23/65 12/22/66 29/41/67
f 29/41/67 12/22/66 28/40/68
s 12
f 13/23/69 29/41/70 14/24/71
f 14/24/71 29/41/70 30/42/72
s 13
f 14/24/73 30/42/74 15/25/75
f 15/25/75 30/42/74 31/43/76
s 14
f 15/25/77 31/43/78 16/26/79
f 16/26/79 31/43/78 32/44/80
s 15
f 17/28/81 16/26/82 33/46/83
f 33/46/83 16/26/82 32/44/84
s 16
f 10/20/85 17/27/86 26/38/87
f 26/38/87 17/27/86 33/45/88
s 17
f 18/29/89 34/47/90 19/30/91
f 19/30/91 34/47/90 35/48/92
s 18
f 19/30/93 35/48/94 20/31/95
f 20/31/95 35/48/94 36/49/96
s 19
f 21/32/97 20/31/98 37/50/99
f 37/50/99 20/31/98 36/49/100
s 20
f 22/33/101 21/32/102 38/51/103
f 38/51/103 21/32/102 37/50/104
s 21
f 22/33/105 38/51/106 23/34/107
f 23/34/107 38/51/106 39/52/108
s 22
f 24/35/109 23/34/110 40/53/111
f 40/53/111 23/34/110 39/52/112
s 23
f 24/35/113 40/53/114 25/37/115
f 25/37/115 40/53/114 41/55/116
s 24
f 25/36/117 41/54/118 18/29/119
f 18/29/119 41/54/118 34/47/120
s 25
f 26/38/121 45/60/122 27/39/123
f 27/39/123 45/60/122 46/61/124
s 26
f 27/39/125 46/61/126 28/40/127
f 28/40/127 46/61/126 47/62/128
s 27
f 28/40/129 47/62/130 29/41/131
f 29/41/131 47/62/130 48/63/132
s 28
f 29/41/133 48/63/134 30/42/135
f 30/42/135 48/63/134 49/64/136
s 29
f 30/42/137 49/64/138 31/43/139
f 31/43/139 49/64/138 42/56/140
s 30
f 31/43/141 42/56/142 32/44/143
f 32/44/143 42/56/142 43/57/144
s 31
f 32/44/145 43/57/146 33/46/147
f 33/46/147 43/57/146 44/59/148
s 32
f 33/45/149 44/58/150 26/38/151
f 26/38/151 44/58/150 45/60/152
s 33
f 51/66/153 10/20/154 50/65/155
f 50/65/155 10/20/154 11/21/156
s 34
f 57/73/157 50/65/158 12/22/159
f 12/22/159 50/65/158 11/21/160
s 35
f 57/73/161 12/22/162 56/72/163
f 56/72/163 12/22/162 13/23/164
s 36
f 56/72/165 13/23/166 55/71/167
f 55/71/167 13/23/166 14/24/168
s 37
f 54/70/169 55/71/170 15/25/171
f 15/25/171 55/71/170 14/24/172
s 38
f 53/69/173 54/70/174 16/26/175
f 16/26/175 54/70/174 15/25/176
s 39
f 52/68/177 53/69/178 17/28/179
f 17/28/179 53/69/178 16/26/180
s 40
f 52/67/181 17/27/182 51/66/183
f 51/66/183 17/27/182 10/20/184
s off
f 43/57/185 42/56/186 9/18/187
f 44/59/188 43/57/189 9/18/190
f 45/60/191 44/58/192 9/18/193
f 46/61/194 45/60/195 9/18/196
f 47/62/197 46/61/198 9/18/199
f 48/63/200 47/62/201 9/18/202
f 49/64/203 48/63/204 9/18/205
f 42/56/206 49/64/207 9/18/208
s 41
f 35/48/209 34/47/210 50/65/211
f 50/65/211 34/47/210 51/66/212
s 42
f 41/54/213 52/67/214 34/47/215
f 34/47/215 52/67/214 51/66/216
s 43
f 41/55/217 40/53/218 52/68/219
f 52/68/219 40/53/218 53/69/220
s 44
f 39/52/221 54/70/222 40/53/223
f 40/53/223 54/70/222 53/69/224
s 45
f 39/52/225 38/51/226 54/70/227
f 54/70/227 38/51/226 55/71/228
s 46
f 37/50/229 56/72/230 38/51/231
f 38/51/231 56/72/230 55/71/232
s 47
f 37/50/233 36/49/234 56/72/235
f 56/72/235 36/49/234 57/73/236
s 48
f 36/49/237 35/48/238 57/73/239
f 57/73/239 35/48/238 50/65/240
s 49
f 1/17/241 59/75/242 8/16/243
f 8/16/243 59/75/242 58/74/244
s 50
f 2/10/245 60/77/246 1/9/247
f 1/9/247 60/77/246 59/76/248
s 51
f 3/11/249 61/78/250 2/10/251
f 2/10/251 61/78/250 60/77/252
s 52
f 4/12/253 62/79/254 3/11/255
f 3/11/255 62/79/254 61/78/256
s 53
f 5/13/257 63/80/258 4/12/259
f 4/12/259 63/80/258 62/79/260
s 54
f 6/14/261 64/81/262 5/13/263
f 5/13/263 64/81/262 63/80/264
s 55
f 6/14/265 7/15/266 64/81/267
f 64/81/267 7/15/266 65/82/268
s 56
f 7/15/269 8/16/270 65/82/271
f 65/82/271 8/16/270 58/74/272
s 57
f 67/83/273 2/2/274 66/84/275
f 2/2/274 1/1/276 66/84/275
s 58
f 67/83/277 68/85/278 2/2/279
f 3/3/280 2/2/279 68/85/278
s 59
f 69/86/281 4/4/282 68/85/283
f 4/4/282 3/3/284 68/85/283
s 60
f 70/87/285 5/5/286 69/86/287
f 5/5/286 4/4/288 69/86/287
s 61
f 70/87/289 71/88/290 5/5/291
f 6/6/292 5/5/291 71/88/290
s 62
f 71/88/293 72/89/294 6/6/295
f 7/7/296 6/6/295 72/89/294
s 63
f 73/90/297 8/8/298 72/89/299
f 8/8/298 7/7/300 72/89/299
s 64
f 73/90/301 66/84/302 8/8/303
f 1/1/304 8/8/303 66/84/302
s 65
usemtl pasted__lambert3SG
f 67/83/305 66/84/306 89/105/307
f 89/105/307 66/84/306 88/104/308
s 66
f 68/85/309 67/83/310 90/106/311
f 90/106/311 67/83/310 89/105/312
s 67
f 69/86/313 68/85/314 83/99/315
f 83/99/315 68/85/314 90/106/316
s 68
f 70/87/317 69/86/318 84/100/319
f 84/100/319 69/86/318 83/99/320
s 69
f 70/87/321 84/100/322 71/88/323
f 71/88/323 84/100/322 85/101/324
s 70
f 71/88/325 85/101/326 72/89/327
f 72/89/327 85/101/326 86/102/328
s 71
f 73/90/329 72/89/330 87/103/331
f 87/103/331 72/89/330 86/102/332
s 72
f 73/90/333 87/103/334 66/84/335
f 66/84/335 87/103/334 88/104/336
s 73
f 84/100/337 83/99/338 79/95/339
f 79/95/339 83/99/338 78/94/340
s 74
f 84/100/341 79/95/342 85/101/343
f 85/101/343 79/95/342 80/96/344
s 75
f 85/101/345 80/96/346 86/102/347
f 86/102/347 80/96/346 81/97/348
s 76
f 87/103/349 86/102/350 82/98/351
f 82/98/351 86/102/350 81/97/352
s 77
f 87/103/353 82/98/354 88/104/355
f 88/104/355 82/98/354 74/92/356
s 78
f 89/105/357 88/104/358 75/91/359
f 75/91/359 88/104/358 74/92/360
s 79
f 89/105/361 75/91/362 90/106/363
f 90/106/363 75/91/362 77/93/364
s 80
f 83/99/365 90/106/366 78/94/367
f 78/94/367 90/106/366 77/93/368
