# This file uses centimeters as units for non-parametric coordinates.

mtllib Floor.mtl
g default
v 32.000000 -1.000016 32.000000
v 32.000000 -1.000005 -32.000000
v -32.000000 -1.000005 32.000000
v -32.000000 -0.999995 -32.000000
v 32.000000 -0.000016 32.000000
v 32.000000 -0.000005 -32.000000
v -32.000000 -0.000005 32.000000
v -32.000000 0.000005 -32.000000
vt 43.000000 -64.000000
vt 42.000000 -0.000000
vt 42.000000 -64.000000
vt 36.000000 -64.000000
vt 42.000000 -64.000000
vt 42.000000 0.000000
vt 43.000000 -64.000000
vt 43.000000 -64.000000
vt 43.000000 -64.000000
vt 42.000000 0.000000
vt -28.000000 -0.000004
vt -28.000000 -64.000000
vt 42.000000 0.000000
vt 42.000000 -63.999996
vt 42.000000 -64.000000
vt 36.000000 -0.000000
vt 107.999992 0.000000
vt 43.000000 0.000000
vt 44.000000 0.000000
vt 43.000000 0.000000
vt 107.999992 -64.000000
vt 43.000000 0.000000
vt 43.999992 -64.000000
vt 43.000000 0.000000
vn -0.000000 -1.000000 -0.000000
vn -0.000000 -1.000000 -0.000000
vn -0.000000 -1.000000 -0.000000
vn -0.000000 -1.000000 -0.000000
vn 0.000000 1.000000 0.000000
vn 0.000000 1.000000 0.000000
vn 0.000000 1.000000 0.000000
vn 0.000000 1.000000 0.000000
vn 1.000000 0.000000 0.000000
vn 1.000000 0.000000 0.000000
vn 1.000000 0.000000 0.000000
vn 1.000000 0.000000 0.000000
vn 0.000000 0.000000 -1.000000
vn 0.000000 0.000000 -1.000000
vn 0.000000 0.000000 -1.000000
vn 0.000000 0.000000 -1.000000
vn -1.000000 0.000000 0.000000
vn -1.000000 0.000000 0.000000
vn -1.000000 0.000000 0.000000
vn -1.000000 0.000000 0.000000
vn 0.000000 -0.000000 1.000000
vn 0.000000 -0.000000 1.000000
vn 0.000000 -0.000000 1.000000
vn 0.000000 -0.000000 1.000000
s off
g Floor
usemtl FloorPrototype64x01x64SG
f 1/19/1 3/23/2 4/21/3 2/17/4
f 5/16/5 6/11/6 8/12/7 7/4/8
f 1/1/9 2/18/10 6/10/11 5/14/12
f 2/9/13 4/22/14 8/6/15 6/3/16
f 4/8/17 3/24/18 7/13/19 8/5/20
f 3/7/21 1/20/22 5/2/23 7/15/24
