# This file uses centimeters as units for non-parametric coordinates.

mtllib LargeBlock.mtl
g default
v -2.000000 -0.000000 2.000000
v 2.000000 -0.000000 2.000000
v -2.000000 0.000000 -2.000000
v 2.000000 0.000000 -2.000000
v -2.000000 4.000000 2.000001
v 2.000000 4.000000 2.000001
v -2.000000 4.000000 -1.999999
v 2.000000 4.000000 -1.999999
vt -5.000001 4.000001
vt -1.000001 4.000000
vt 3.000000 4.000000
vt -1.000000 8.000000
vt 3.000000 8.000000
vt 3.000000 0.000000
vt -9.000002 4.000003
vt -5.000000 8.000001
vt -8.999999 8.000003
vt 7.000000 4.000000
vt 6.999999 8.000001
vt 3.000000 12.000000
vt -1.000000 12.000000
vt -1.000000 0.000000
vn 0.000000 -1.000000 -0.000000
vn 0.000000 -1.000000 -0.000000
vn 0.000000 -1.000000 -0.000000
vn 0.000000 -1.000000 -0.000000
vn 0.000000 1.000000 0.000000
vn 0.000000 1.000000 0.000000
vn 0.000000 1.000000 0.000000
vn 0.000000 1.000000 0.000000
vn 0.000000 -0.000000 1.000000
vn 0.000000 -0.000000 1.000000
vn 0.000000 -0.000000 1.000000
vn 0.000000 -0.000000 1.000000
vn 1.000000 0.000000 0.000000
vn 1.000000 0.000000 0.000000
vn 1.000000 0.000000 0.000000
vn 1.000000 0.000000 0.000000
vn 0.000000 0.000000 -1.000000
vn 0.000000 0.000000 -1.000000
vn 0.000000 0.000000 -1.000000
vn 0.000000 0.000000 -1.000000
vn -1.000000 0.000000 0.000000
vn -1.000000 0.000000 0.000000
vn -1.000000 0.000000 0.000000
vn -1.000000 0.000000 0.000000
s off
g LargeBlock
usemtl BlockPrototype04x04x04SG
f 1/1/1 3/8/2 4/9/3 2/7/4
f 5/2/5 6/3/6 8/5/7 7/4/8
f 1/14/9 2/6/10 6/3/11 5/2/12
f 6/3/13 2/10/14 4/11/15 8/5/16
f 4/12/17 3/13/18 7/4/19 8/5/20
f 7/4/21 3/8/22 1/1/23 5/2/24
