# This file uses centimeters as units for non-parametric coordinates.

mtllib PlatformMedium.mtl
g default
v 2.000000 -1.000000 2.000000
v 2.000000 -0.999999 -2.000000
v -2.000000 -1.000000 2.000000
v -2.000000 -0.999999 -2.000000
v 2.000000 -0.000000 2.000000
v 2.000000 0.000000 -2.000000
v -2.000000 -0.000000 2.000000
v -2.000000 0.000001 -2.000000
vt 4.000000 1.000000
vt 4.000000 2.000000
vt -0.000000 2.000000
vt -0.000000 2.000000
vt -0.000000 2.000000
vt 4.000000 0.000000
vt 4.000000 4.000000
vt -0.000000 4.000000
vt 0.000000 -0.000000
vt -0.000000 0.000000
vt 4.000000 -0.000000
vt 4.000000 4.000000
vt 0.000000 4.000000
vt -0.000000 1.000000
vt 4.000000 1.000000
vt 4.000000 2.000000
vt -0.000000 2.000000
vt -0.000000 1.000000
vt 4.000000 1.000000
vt 4.000000 2.000000
vt -0.000000 1.000000
vt 4.000000 1.000000
vt 4.000000 2.000000
vt -0.000000 1.000000
vn 0.000000 -1.000000 -0.000000
vn 0.000000 -1.000000 -0.000000
vn 0.000000 -1.000000 -0.000000
vn 0.000000 -1.000000 -0.000000
vn 0.000000 1.000000 0.000000
vn 0.000000 1.000000 0.000000
vn 0.000000 1.000000 0.000000
vn 0.000000 1.000000 0.000000
vn 1.000000 0.000000 0.000000
vn 1.000000 0.000000 0.000000
vn 1.000000 0.000000 0.000000
vn 1.000000 0.000000 0.000000
vn 0.000000 0.000000 -1.000000
vn 0.000000 0.000000 -1.000000
vn 0.000000 0.000000 -1.000000
vn 0.000000 0.000000 -1.000000
vn -1.000000 0.000000 0.000000
vn -1.000000 0.000000 0.000000
vn -1.000000 0.000000 0.000000
vn -1.000000 0.000000 0.000000
vn 0.000000 -0.000000 1.000000
vn 0.000000 -0.000000 1.000000
vn 0.000000 -0.000000 1.000000
vn 0.000000 -0.000000 1.000000
s off
g PlatformMedium
usemtl PlatformPrototype04x01x04SG
f 1/6/1 3/7/2 4/8/3 2/9/4
f 5/10/5 6/11/6 8/12/7 7/13/8
f 1/14/9 2/15/10 6/16/11 5/17/12
f 2/18/13 4/19/14 8/20/15 6/3/16
f 4/21/17 3/22/18 7/23/19 8/5/20
f 3/24/21 1/1/22 5/2/23 7/4/24
