# This file uses centimeters as units for non-parametric coordinates.

mtllib Ramp.mtl
g default
v -1.000000 0.000000 -2.000000
v -1.000000 2.000000 2.000000
v -1.000000 -0.000000 2.000000
v 1.000000 0.000000 -2.000000
v 1.000000 2.000000 2.000000
v 1.000000 -0.000000 2.000000
vt 2.000000 0.000000
vt 2.000000 -4.000000
vt 4.000000 0.000000
vt 6.000000 2.000000
vt 6.000000 -4.000000
vt 8.000000 -4.000000
vt 8.000000 2.000000
vt 6.000000 8.000000
vt 6.000000 4.000000
vt 8.000000 4.000000
vt 8.000000 8.000000
vt 2.000000 0.000000
vt 2.000000 -3.987803
vt 0.000000 0.000000
vt 8.000000 0.000000
vt 6.000000 0.000000
vn 1.000000 0.000000 0.000000
vn 1.000000 0.000000 0.000000
vn 1.000000 0.000000 0.000000
vn 0.000000 -1.000000 -0.000000
vn 0.000000 -1.000000 -0.000000
vn 0.000000 -1.000000 -0.000000
vn 0.000000 -1.000000 -0.000000
vn 0.000000 0.894427 -0.447213
vn 0.000000 0.894427 -0.447213
vn 0.000000 0.894427 -0.447213
vn 0.000000 0.894427 -0.447213
vn 0.000000 -0.000000 1.000000
vn 0.000000 -0.000000 1.000000
vn 0.000000 -0.000000 1.000000
vn 0.000000 -0.000000 1.000000
vn -1.000000 0.000000 0.000000
vn -1.000000 0.000000 0.000000
vn -1.000000 0.000000 0.000000
s off
g Ramp
usemtl RampPrototype04x02x02SG
f 6/1/1 4/2/2 5/3/3
f 3/16/4 1/5/5 4/6/6 6/15/7
f 1/8/8 2/9/9 5/10/10 4/11/11
f 2/9/12 3/4/13 6/7/14 5/10/15
f 3/12/16 2/14/17 1/13/18
