# This file uses centimeters as units for non-parametric coordinates.

mtllib Steps.mtl
g default
v -1.000000 -0.000000 1.997399
v -1.000001 0.486545 -1.512661
v -1.000001 0.486545 -0.997172
v -1.000001 0.744392 -0.998472
v -1.000001 0.744392 -0.504696
v -1.000001 0.993967 -0.504696
v -1.000002 0.993967 -0.008993
v -1.000002 1.250248 -0.008993
v -1.000001 1.250248 0.495402
v -1.000001 1.508802 0.495402
v -1.000001 1.508802 0.988880
v -1.000001 1.745869 0.988880
v -1.000001 1.745869 1.497096
v -1.000001 2.000000 1.497096
v -1.000000 2.000000 1.997399
v 0.999999 -0.000000 2.000000
v 0.999999 0.486545 -1.511360
v 1.000000 0.486545 -0.995872
v 1.000000 0.744392 -0.995871
v 1.000000 0.744392 -0.502095
v 1.000000 0.993967 -0.502095
v 0.999999 0.993967 -0.006391
v 0.999999 1.250248 -0.006391
v 0.999999 1.250248 0.498002
v 0.999999 1.508802 0.498002
v 0.999999 1.508802 0.991480
v 0.999999 1.745870 0.991480
v 1.000000 1.745870 1.499696
v 1.000000 2.000000 1.499696
v 0.999999 2.000000 2.000000
v 0.999999 0.251541 -1.511360
v -1.000001 0.251540 -1.513311
v 0.999999 0.251541 -2.000000
v -1.000001 0.251540 -2.000000
v 0.999999 0.000001 -2.000000
v -1.000001 0.000000 -2.000000
vt -0.500000 2.000000
vt -1.000000 2.000000
vt 0.000028 0.254833
vt 0.487037 0.254289
vt 4.000000 7.000000
vt -2.075596 2.000000
vt 4.000000 0.000000
vt 0.000000 0.000000
vt -2.073040 2.000000
vt -2.073852 2.000000
vt -2.073857 0.000000
vt 2.990837 1.753164
vt 3.499378 1.752871
vt 3.499379 2.007763
vt 3.999998 2.007763
vt -2.070458 2.000000
vt -2.071346 2.000000
vt -2.071352 0.000000
vt 1.992277 1.256282
vt 2.497011 1.255988
vt 2.496993 1.515344
vt 2.990839 1.515344
vt -2.080120 2.000000
vt 0.000000 -1.000000
vt 0.000000 -3.000000
vt -2.067847 2.000000
vt -2.068727 2.000000
vt -2.068731 0.000000
vt 0.487688 0.490784
vt 1.003515 0.490455
vt 1.002215 0.749257
vt 1.496306 0.748934
vt -2.092091 2.000000
vt -2.093761 2.000000
vt -2.093766 0.000000
vt -0.500000 0.000000
vt -0.500000 2.000000
vt 1.496291 0.999428
vt 1.992292 0.999090
vt -2.088409 2.000000
vt -2.090137 2.000000
vt -2.090144 0.000000
vt 0.500297 1.997775
vt 0.500299 1.745015
vt 1.008511 1.746388
vt 1.008511 1.510298
vt -0.500000 0.000000
vt 0.000000 0.000000
vt 0.000000 1.997775
vt -2.083391 0.000000
vt 3.999988 0.261704
vt 4.000000 0.000000
vt 3.511345 0.259212
vt 3.511334 0.496441
vt 2.995851 0.494978
vt 2.995854 0.752306
vt 2.502083 0.750943
vt 2.502087 1.000169
vt 2.006386 0.998702
vt 2.006386 1.254418
vt 1.501991 1.253025
vt 1.501989 1.510298
vt -0.500000 0.000000
vt -1.000000 2.000000
vt -2.084956 2.000000
vt -1.000000 0.000000
vt -1.000000 0.000000
vt -1.000000 0.000000
vt -1.000000 0.000000
vt -1.000000 0.000000
vt -1.000000 0.000000
vt -2.076470 0.000000
vt 4.000000 -3.000000
vt 6.000000 5.000000
vt -2.078434 2.000000
vt -2.078434 0.000000
vt -2.080119 0.000000
vt -0.500000 2.000000
vt -1.000000 0.000000
vt -2.083381 2.000000
vt -0.500000 2.000000
vt -2.084965 0.000000
vt -1.000000 2.000000
vt -2.088418 0.000000
vt -1.000000 2.000000
vt -2.092096 0.000000
vt -0.500000 2.000000
vt -0.500000 0.000000
vt -1.000000 2.000000
vt -2.067851 0.000000
vt -1.000000 2.000000
vt -2.070464 0.000000
vt -0.500000 2.000000
vt -0.500000 0.000000
vt -1.000000 2.000000
vt -2.073044 0.000000
vt -0.500000 2.000000
vt -0.500000 0.000000
vt -1.000000 2.000000
vt -2.075600 0.000000
vt -0.500000 2.000000
vt -0.500000 0.000000
vt -2.076467 2.000000
vt -0.500000 0.000000
vt 4.000000 -1.000000
vt 4.000000 5.000000
vt 6.000000 7.000000
vt -1.000000 0.000000
vn 0.000000 1.000000 -0.000000
vn 0.000000 1.000000 -0.000000
vn 0.000000 1.000000 -0.000000
vn 0.000000 1.000000 -0.000000
vn -0.001301 -0.000000 0.999999
vn -0.001301 -0.000000 0.999999
vn -0.001301 -0.000000 0.999999
vn -0.001301 -0.000000 0.999999
vn 0.001300 0.000000 -0.999999
vn 0.001300 0.000000 -0.999999
vn 0.001300 0.000000 -0.999999
vn 0.001300 0.000000 -0.999999
vn 0.001300 0.000000 -0.999999
vn 0.001300 0.000000 -0.999999
vn 0.001300 0.000000 -0.999999
vn 0.001300 0.000000 -0.999999
vn -0.000000 1.000000 0.000000
vn -0.000000 1.000000 0.000000
vn -0.000000 1.000000 0.000000
vn -0.000000 1.000000 0.000000
vn 0.001300 0.000000 -0.999999
vn 0.001300 0.000000 -0.999999
vn 0.001300 0.000000 -0.999999
vn 0.001300 0.000000 -0.999999
vn 0.000000 1.000000 0.000000
vn 0.000000 1.000000 0.000000
vn 0.000000 1.000000 0.000000
vn 0.000000 1.000000 0.000000
vn 0.000000 -1.000000 -0.000000
vn 0.000000 -1.000000 -0.000000
vn 0.000000 -1.000000 -0.000000
vn 0.000000 -1.000000 -0.000000
vn 0.001301 0.000000 -0.999999
vn 0.001301 0.000000 -0.999999
vn 0.001301 0.000000 -0.999999
vn 0.001301 0.000000 -0.999999
vn -0.000000 1.000000 0.000000
vn -0.000000 1.000000 0.000000
vn -0.000000 1.000000 0.000000
vn -0.000000 1.000000 0.000000
vn 0.001301 0.000000 -0.999999
vn 0.001301 0.000000 -0.999999
vn 0.001301 0.000000 -0.999999
vn 0.001301 0.000000 -0.999999
vn -0.000000 1.000000 0.000000
vn -0.000000 1.000000 0.000000
vn -0.000000 1.000000 0.000000
vn -0.000000 1.000000 0.000000
vn 0.000975 -0.002521 -0.999996
vn 0.000975 -0.002521 -0.999996
vn 0.000975 -0.002521 -0.999996
vn 0.000975 -0.002521 -0.999996
vn -0.000000 1.000000 -0.000000
vn -0.000000 1.000000 -0.000000
vn -0.000000 1.000000 -0.000000
vn -0.000000 1.000000 -0.000000
vn 0.000000 1.000000 0.000000
vn 0.000000 1.000000 0.000000
vn 0.000000 1.000000 0.000000
vn 0.000000 1.000000 0.000000
vn 0.000813 0.001382 -0.999999
vn 0.000813 0.001382 -0.999999
vn 0.000813 0.001382 -0.999999
vn 0.000813 0.001382 -0.999999
vn 1.000000 -0.000000 0.000000
vn 1.000000 -0.000000 0.000001
vn 1.000000 -0.000000 0.000002
vn 1.000000 -0.000000 0.000002
vn 0.000000 0.000000 -1.000000
vn 0.000000 0.000000 -1.000000
vn 0.000000 0.000000 -1.000000
vn 0.000000 0.000000 -1.000000
vn -0.000001 1.000000 0.000000
vn -0.000001 1.000000 0.000000
vn -0.000001 1.000000 0.000000
vn -0.000001 1.000000 0.000000
vn -1.000000 -0.000001 0.000000
vn -1.000000 -0.000001 0.000000
vn -1.000000 -0.000001 0.000000
vn -1.000000 -0.000001 0.000001
vn 1.000000 -0.000000 0.000000
vn 1.000000 -0.000001 -0.000001
vn 1.000000 -0.000001 -0.000002
vn 1.000000 -0.000000 0.000001
vn 1.000000 -0.000001 -0.000000
vn 1.000000 -0.000000 0.000000
vn 1.000000 0.000000 0.000000
vn 1.000000 0.000000 0.000000
vn 1.000000 -0.000001 -0.000000
vn 1.000000 -0.000004 -0.000001
vn 1.000000 -0.000003 -0.000000
vn 1.000000 -0.000000 0.000000
vn 1.000000 -0.000000 0.000000
vn 1.000000 -0.000003 -0.000000
vn 1.000000 -0.000001 0.000000
vn 1.000000 0.000001 0.000001
vn 1.000000 -0.000000 0.000000
vn 1.000000 0.000001 0.000001
vn 1.000000 0.000002 0.000001
vn 1.000000 0.000001 0.000001
vn 1.000000 -0.000000 0.000000
vn 1.000000 0.000001 0.000001
vn 1.000000 0.000000 0.000000
vn 1.000000 0.000000 0.000000
vn 1.000000 -0.000000 0.000000
vn 1.000000 0.000000 0.000000
vn 1.000000 0.000000 0.000000
vn 1.000000 -0.000001 -0.000001
vn -1.000000 -0.000001 0.000000
vn -1.000000 -0.000001 0.000001
vn -1.000000 -0.000001 0.000000
vn -1.000000 -0.000001 0.000000
vn -1.000000 -0.000001 0.000000
vn -1.000000 -0.000001 0.000001
vn -1.000000 -0.000002 -0.000000
vn -1.000000 -0.000001 0.000000
vn -1.000000 -0.000002 -0.000000
vn -1.000000 -0.000001 0.000001
vn -1.000000 -0.000001 0.000000
vn -1.000000 -0.000003 -0.000001
vn -1.000000 -0.000001 0.000000
vn -1.000000 -0.000001 0.000001
vn -1.000000 0.000000 0.000001
vn -1.000000 0.000001 0.000002
vn -1.000000 0.000000 0.000001
vn -1.000000 -0.000001 0.000001
vn -1.000000 -0.000001 0.000000
vn -1.000000 -0.000001 0.000000
vn -1.000000 -0.000001 0.000000
vn -1.000000 -0.000001 0.000001
vn -1.000000 -0.000000 0.000002
vn -1.000000 -0.000001 0.000000
vn -1.000000 -0.000000 0.000002
vn -1.000000 -0.000001 0.000001
vn -1.000000 -0.000000 0.000002
vn -1.000000 -0.000000 0.000002
s off
g Steps
usemtl StepsPrototype04x02x02SG
f 29/104/1 14/1/2 15/2/3 30/108/4
f 30/74/5 15/107/6 1/5/7 16/106/8
f 28/100/9 13/6/10 14/103/11 29/72/12
f 26/96/13 11/9/14 12/10/15 27/11/16
f 27/102/17 12/101/18 13/99/19 28/71/20
f 24/92/21 9/16/22 10/17/23 25/18/24
f 25/98/25 10/97/26 11/95/27 26/70/28
f 16/73/29 1/105/30 36/24/31 35/25/32
f 22/90/33 7/26/34 8/27/35 23/28/36
f 23/94/37 8/93/38 9/91/39 24/69/40
f 20/86/41 5/33/42 6/34/43 21/35/44
f 21/36/45 6/37/46 7/89/47 22/68/48
f 18/84/49 3/40/50 4/41/51 19/42/52
f 19/88/53 4/87/54 5/85/55 20/67/56
f 17/47/57 2/81/58 3/83/59 18/66/60
f 31/50/61 32/80/62 2/65/63 17/82/64
f 16/48/65 28/44/66 29/43/67 30/49/68
f 34/23/69 33/77/70 35/76/71 36/75/72
f 32/64/73 31/79/74 33/63/75 34/78/76
f 32/4/77 34/3/78 36/8/79 1/7/80
f 16/48/81 26/46/82 27/45/83 28/44/84
f 31/53/85 16/48/86 35/52/87 33/51/88
f 31/53/89 17/54/90 18/55/91 16/48/92
f 16/48/93 18/55/94 19/56/95 20/57/96
f 16/48/97 20/57/98 21/58/99 22/59/100
f 16/48/101 22/59/102 23/60/103 24/61/104
f 16/48/105 24/61/106 25/62/107 26/46/108
f 32/4/109 1/7/110 3/30/111 2/29/112
f 3/30/113 1/7/114 5/32/115 4/31/116
f 5/32/117 1/7/118 7/39/119 6/38/120
f 7/39/121 1/7/122 9/20/123 8/19/124
f 9/20/125 1/7/126 11/22/127 10/21/128
f 11/22/129 1/7/130 13/13/131 12/12/132
f 13/13/133 1/7/134 15/15/135 14/14/136
